<svg>
<defs>
<symbol id="instagram">
<path style="fill:#FDE494;" d="M114.759,512h61.103l-96.414-61.793L0.198,403.898C3.659,464.09,53.716,512,114.759,512z"/>
<path style="fill:#FEA150;" d="M335.448,476.69l-69.006-17.655H114.759c-34.072,0-61.793-27.721-61.793-61.793v-33.876 l-26.483-28.42L0,339.628v57.613c0,2.236,0.072,4.454,0.198,6.657L175.862,512h208.767L335.448,476.69z"/>
<path style="fill:#FF5D4A;" d="M441.655,440.14c-11.244,11.637-26.993,18.894-44.414,18.894H266.442L384.629,512h12.612 c41.202,0,77.396-21.829,97.64-54.527l-27.022-16.094L441.655,440.14z"/>
<path style="fill:#E45261;" d="M459.034,326.014v71.228c0,16.652-6.633,31.775-17.379,42.899l53.227,17.333 C505.728,439.954,512,419.318,512,397.241v-62.805l-27.396-15.391L459.034,326.014z"/>
<polygon style="fill:#FF4D95;" points="512,149.19 483.797,142.474 459.034,157.3 459.034,326.014 512,334.436 "/>
<path style="fill:#CB319C;" d="M512,114.759c0-57.633-42.708-105.473-98.136-113.55L344.43,30.101l-35.183,22.865h87.994 c34.072,0,61.793,27.721,61.793,61.793V157.3L512,149.19V114.759z"/>
<path style="fill:#8A3293;" d="M317.732,0l-65.682,24.636l-51.805,28.33h109.002L413.864,1.208C408.435,0.417,402.887,0,397.241,0 H317.732z"/>
<path style="fill:#FF5D4A;" d="M256,406.069c18.358,0,35.954-3.32,52.226-9.38l-86.02-39.047l-91.178-18.657 C157.946,379.39,203.913,406.069,256,406.069z"/>
<path style="fill:#E45261;" d="M329.153,305.358c-15.883,23.465-42.748,38.918-73.153,38.918c-40.273,0-74.308-27.118-84.867-64.046 l-23.682-14.801l-40.847,4.538c2.353,25.345,11.014,48.887,24.425,69.017l177.198,57.705c38.303-14.264,69.237-43.757,85.458-81.068 l-31.753-16.085L329.153,305.358z"/>
<g>
<path style="fill:#FF4D95;" d="M167.724,256c0-21.878,8.018-41.907,21.247-57.346l-37.658-5.268l-38.25,16.892 c-4.625,14.422-7.132,29.784-7.132,45.722c0,4.712,0.244,9.365,0.671,13.966l64.53,10.262 C168.929,272.524,167.724,264.403,167.724,256z"/>
<path style="fill:#FF4D95;" d="M406.069,256c0-32.138-10.159-61.946-27.428-86.39l-37.397-5.308l-38.418,16.917 c24.873,15.631,41.45,43.298,41.45,74.781c0,18.27-5.58,35.261-15.123,49.358l64.531,10.262 C401.634,297.334,406.069,277.18,406.069,256z"/>
</g>
<g>
<path style="fill:#CB319C;" d="M256,167.724c17.194,0,33.242,4.959,46.826,13.495l75.815-11.609 c-27.196-38.493-72.03-63.679-122.641-63.679c-66.81,0-123.554,43.889-142.937,104.345l75.908-11.624 C205.173,179.742,229.203,167.724,256,167.724z"/>
<path style="fill:#CB319C;" d="M397.241,150.069c19.47,0,35.31-15.84,35.31-35.31s-15.84-35.31-35.31-35.31 c-19.47,0-35.31,15.84-35.31,35.31S377.771,150.069,397.241,150.069z"/>
</g>
<polygon style="fill:#FF5D4A;" points="52.966,313.564 27.47,300.847 0,296.316 0,339.629 52.966,363.366 "/>
<polygon style="fill:#E45261;" points="0,253.014 0,296.316 52.966,313.564 52.966,261.437 25.446,251.543 "/>
<polygon style="fill:#FF4D95;" points="52.966,219.479 25.749,219.233 0,227.59 0,253.014 52.966,261.437 "/>
<polygon style="fill:#CB319C;" points="52.966,179.757 24.911,182.603 0,205.962 0,227.59 52.966,219.479 "/>
<polygon style="fill:#8A3293;" points="0,205.962 52.966,179.757 52.966,119.362 21.9,122.333 0,143.241 "/>
<path style="fill:#523494;" d="M205.059,0L84.206,46.481L1.387,96.928C0.477,102.741,0,108.695,0,114.759v28.482l52.966-23.878 v-4.605c0-34.072,27.721-61.793,61.793-61.793h85.487L317.732,0H205.059z"/>
<path style="fill:#2D2D87;" d="M114.759,0C57.545,0,9.978,42.088,1.387,96.928L205.059,0H114.759z"/>
</symbol>
<symbol id="filfan_logo">
<path fill-rule="evenodd" clip-rule="evenodd" d="M50.6,3.6C25,3.6,4.2,24.4,4.2,50c0,25.6,20.8,46.4,46.4,46.4 C76.2,96.4,97,75.6,97,50C97,24.4,76.2,3.6,50.6,3.6z M51.6,68.7c5.3,3.4,11,4.3,17.1,2.7c0.5-0.1,1.1-0.3,1.6-0.6 c0.5-0.3,0.8-0.8,0.6-1.5c-0.2-0.6-0.7-0.9-1.3-0.9c-0.7,0-1.5,0.2-2.2,0.3c-8.3,1.3-14.8-4.1-15.2-12.5c-0.3-6.4,2-11.6,7.6-14.6 c6.3-3.4,12.6-2.8,18.5,1.2c9,6.1,11.1,19,4.4,27.7c-4.4,5.7-10,9.8-16.9,11.6c-8.5,2.3-16.3,0.3-23.4-4.6 c-9.2-6.5-14-15.7-15-26.8C26.4,40.8,28.8,31.8,35,24c6.5-8.2,15-12.5,25.5-11.7c11,0.8,19.2,6.6,24.9,15.9 c3.5,5.6,5.1,11.8,5.4,18.4c0,0.3,0,0.6,0,0.9c-1.8-5.4-4.9-10-9.1-13.7c-6.6-5.7-14.2-8.5-22.8-6.3C49.2,30,42,38.1,41.8,49 C41.7,57.2,44.5,64.1,51.6,68.7z M20,63.5C26.6,76,36.7,84.1,50.7,86.8c5.5,1.1,11,0.8,16.6-0.5C57.4,92,38,92.5,24,80 C8.5,66.1,7.8,44.7,15.3,31.5C13.6,43,14.8,53.6,20,63.5z"/>
<circle fill-rule="evenodd" clip-rule="evenodd" cx="45" cy="25.7" r="4.9"/>
</symbol>
<symbol id="filfan_text">
<path d="M82.6,19.7c-1-1.1-2.2-1.7-3.7-1.7c-1.5,0-2.7,0.6-3.7,1.7c-1,1.1-1.4,2.5-1.4,4.2c0,0.8,0.1,1.6,0.4,2.3 c0.3,0.7,0.7,1.3,1.2,1.7h-2.4h-0.2h-8.5c0,0,1.1,1.8,3.3,1.8c0.5,0,0.5,0,1.2,0c0,0.5-0.2,3.7-3.6,5.3c-0.9,0.4-2,0.6-3.3,0.6 c-1.9,0-3.5-0.7-4.9-2c-1.3-1.3-2-3-2-4.9c0-2.1,0.7-3.8,2.1-5.1c1.4-1.3,3-2,5-2l0.2-0.4h-1c-2,0-3.7,0.7-5.2,2 c-1.7,1.5-2.6,3.5-2.6,5.9c0,2.4,0.7,4.4,2.2,6c1.5,1.6,3.6,2.4,6.2,2.4c1.9,0,3.4-0.4,4.8-1.1c3.6-2,4.1-6.1,4.2-6.7 c0.5,0,1.1,0,1.9,0h0.2h7.7c1.1,0,2-0.3,2.5-0.8c0.5-0.5,0.8-1.3,0.8-2.4v-2.7C84.1,22.2,83.6,20.8,82.6,19.7z M82.2,26.6 c0,0.3-0.1,0.7-0.4,0.9c-0.3,0.3-0.6,0.4-1.1,0.4h-1c-1.1,0-2.1-0.4-2.9-1.2c-0.8-0.8-1.2-1.8-1.2-2.9c0-1.1,0.3-2.1,0.9-2.9 c0.6-0.8,1.4-1.2,2.4-1.2c1,0,1.8,0.4,2.4,1.3c0.6,0.8,0.9,1.7,0.9,2.8V26.6z"/>
<path d="M72.7,16.8c0.4,0,0.7-0.1,0.9-0.4c0.3-0.3,0.4-0.6,0.4-0.9c0-0.4-0.1-0.7-0.4-0.9c-0.3-0.3-0.6-0.4-0.9-0.4 c-0.4,0-0.7,0.1-0.9,0.4c-0.3,0.3-0.4,0.6-0.4,0.9c0,0.4,0.1,0.7,0.4,0.9C72,16.7,72.3,16.8,72.7,16.8z"/>
<path d="M9.5,26.5c0,0.4,0.1,0.7,0.4,0.9c0.3,0.3,0.6,0.4,0.9,0.4c0.4,0,0.7-0.1,0.9-0.4c0.3-0.3,0.4-0.6,0.4-0.9 c0-0.4-0.1-0.7-0.4-0.9c-0.3-0.3-0.6-0.4-0.9-0.4c-0.4,0-0.7,0.1-0.9,0.4C9.7,25.8,9.5,26.1,9.5,26.5z"/>
<path d="M23.4,16.5c0.4,0,0.7-0.1,0.9-0.4c0.3-0.3,0.4-0.6,0.4-0.9c0-0.4-0.1-0.7-0.4-0.9c-0.3-0.3-0.6-0.4-0.9-0.4 c-0.4,0-0.7,0.1-0.9,0.4c-0.3,0.3-0.4,0.6-0.4,0.9c0,0.4,0.1,0.7,0.4,0.9C22.8,16.3,23.1,16.5,23.4,16.5z"/>
<path d="M38.6,25.7c0,0.7-0.2,1.3-0.5,1.6c-0.3,0.4-0.8,0.5-1.5,0.5h-1h-0.2h-3.1c0.9-1.1,1.3-2.4,1.3-4.1c0-1.7-0.5-3.1-1.4-4.2 c-1-1.1-2.2-1.7-3.7-1.7c-1.5,0-2.7,0.6-3.7,1.7c-1,1.1-1.4,2.5-1.4,4.2c0,1.6,0.4,3,1.3,4.1h-1.8h-0.2h-1c-0.6,0-1.1-0.2-1.7-0.5 c-0.6-0.4-0.9-0.8-0.9-1.4v-8.1l-1.8,1.8v8.8c0,2.1-0.6,3.8-1.7,5c-1.2,1.3-3,2-5.4,2c-1.9,0-3.5-0.7-4.9-2c-1.3-1.3-2-3-2-4.9 c0-2.1,0.7-3.8,2.1-5.1c1.4-1.3,3-2,5-2l0.2-0.4h-1c-2,0-3.7,0.7-5.2,2c-1.7,1.5-2.6,3.5-2.6,5.9c0,2.4,0.7,4.4,2.2,6 c1.5,1.6,3.6,2.4,6.2,2.4c2.9,0,5.2-0.9,6.8-2.7c1.4-1.5,2.1-3.4,2.1-5.6v-0.3c0.3,0.2,0.7,0.4,1.1,0.6c0.5,0.1,0.9,0.2,1.5,0.2h1 h0.2h12.5h0.2h1c1.2,0,2.1-0.3,2.8-1c0.7-0.7,1-1.7,1-3V8l-1.8,1.8V25.7z M30.9,26.6c-0.6,0.8-1.4,1.2-2.4,1.2 c-1,0-1.8-0.4-2.4-1.2c-0.6-0.8-0.9-1.7-0.9-2.9c0-1.1,0.3-2.1,0.9-2.9c0.6-0.8,1.4-1.2,2.4-1.2c1,0,1.8,0.4,2.4,1.2 c0.6,0.8,0.9,1.7,0.9,2.9C31.8,24.9,31.5,25.8,30.9,26.6z"/>
<path d="M45.2,9.8v12.8c0,1.8-0.1,3.4-0.4,4.8c-0.2,1-0.5,1.9-0.8,2.6c-0.2,0.5-0.4,0.8-0.4,0.8h0.2c0.5-0.4,1-0.9,1.4-1.5 c0.6-0.9,1-2,1.4-3.3c0.4-1.6,0.6-3.6,0.6-5.9V8L45.2,9.8z"/>
</symbol>
<symbol id="burger">
<rect y="-0.1" width="20" height="3"/>
<rect y="8.5" width="20" height="3"/>
<rect y="17" width="20" height="3"/>
</symbol>
<symbol id="search">
<path d="M19,16.6l-4.1-4.1c0,0,0,0-0.1-0.1c0.8-1.2,1.3-2.7,1.3-4.3c0-4.3-3.5-7.8-7.8-7.8S0.5,3.8,0.5,8.1 C0.5,12.5,4,16,8.3,16c1.6,0,3.1-0.5,4.3-1.3c0,0,0,0,0.1,0.1l4.1,4.1c0.6,0.6,1.6,0.6,2.2,0C19.7,18.3,19.7,17.2,19,16.6z M8.3,13.3c-2.8,0-5.1-2.3-5.1-5.1C3.2,5.3,5.5,3,8.3,3c2.8,0,5.1,2.3,5.1,5.1C13.4,11,11.1,13.3,8.3,13.3z"/>
</symbol>
<symbol id="social">
<path d="M16.2,12.6c-1.2,0-2.2,0.5-2.8,1.4l-6.2-3.1c0.1-0.3,0.1-0.6,0.1-0.9c0-0.4-0.1-0.7-0.2-1l6.1-3.1 C14,6.7,15,7.3,16.2,7.3c2,0,3.6-1.6,3.6-3.6c0-2-1.6-3.6-3.6-3.6c-2,0-3.6,1.6-3.6,3.6c0,0.3,0.1,0.6,0.1,0.9L6.5,7.7 C5.9,6.9,4.9,6.3,3.7,6.3c-2,0-3.6,1.6-3.6,3.6c0,2,1.6,3.6,3.6,3.6c1.2,0,2.2-0.6,2.9-1.4l6.1,3.1c-0.1,0.3-0.2,0.7-0.2,1 c0,2,1.6,3.6,3.6,3.6c2,0,3.6-1.6,3.6-3.6C19.8,14.2,18.2,12.6,16.2,12.6z"/>
</symbol>
<symbol id="user">
<path d="M10,0L10,0c2.4,0,4.4,2,4.4,4.4c0,2.4-2,4.4-4.4,4.4c-2.4,0-4.4-2-4.4-4.4C5.6,2,7.6,0,10,0"/>
<path d="M10,19.3c-2.4,0-4.7-0.9-6.4-2.4c-0.4-0.4-0.7-0.9-0.7-1.4c0-2.5,2-4.5,4.5-4.5h5.2c2.5,0,4.5,2,4.5,4.5 c0,0.6-0.2,1.1-0.7,1.4C14.7,18.4,12.4,19.3,10,19.3"/>
</symbol>
<symbol id="facebook">
<path d="M10,0.3c-5.4,0-9.7,4.4-9.7,9.7c0,5.4,4.4,9.7,9.7,9.7c5.4,0,9.7-4.4,9.7-9.7C19.7,4.6,15.4,0.3,10,0.3z M12.4,10.3h-1.6c0,2.5,0,5.7,0,5.7H8.5c0,0,0-3.1,0-5.7H7.4v-2h1.1V7.1c0-0.9,0.4-2.4,2.4-2.4l1.7,0v1.9c0,0-1.1,0-1.3,0 c-0.2,0-0.5,0.1-0.5,0.5v1.2h1.8L12.4,10.3z"/>
</symbol>
<symbol id="twitter">
<path d="M10,0C4.6,0,0.3,4.4,0.3,9.8s4.4,9.8,9.8,9.8c5.4,0,9.8-4.4,9.8-9.8S15.4,0,10,0z M14,8c0,0.1,0,0.2,0,0.2 c0,2.5-1.9,5.5-5.5,5.5c-1.1,0-2.1-0.3-3-0.9c0.2,0,0.3,0,0.5,0c0.9,0,1.7-0.3,2.4-0.8c-0.8,0-1.6-0.6-1.8-1.3c0.1,0,0.2,0,0.4,0 c0.2,0,0.3,0,0.5-0.1C6.6,10.5,6,9.8,6,8.8c0,0,0,0,0,0C6.2,8.9,6.5,9,6.8,9C6.3,8.7,6,8.1,6,7.4c0-0.4,0.1-0.7,0.3-1 c1,1.2,2.4,1.9,4,2c0-0.1,0-0.3,0-0.4c0-1.1,0.9-1.9,1.9-1.9c0.6,0,1.1,0.2,1.4,0.6c0.4-0.1,0.9-0.2,1.2-0.5 c-0.1,0.4-0.4,0.8-0.8,1.1c0.4,0,0.8-0.1,1.1-0.3C14.7,7.4,14.4,7.7,14,8z"/>
</symbol>
<symbol id="google-plus">
<path fill-rule="evenodd" clip-rule="evenodd" d="M9.7,8.1c0-1-0.6-2.6-1.8-2.6c-0.4,0-0.8,0.2-1,0.5C6.6,6.2,6.6,6.6,6.6,7 c0,0.9,0.5,2.5,1.8,2.5c0.4,0,0.7-0.2,1-0.4C9.6,8.8,9.7,8.3,9.7,8.1L9.7,8.1z M9.7,8.1"/>
<path fill-rule="evenodd" clip-rule="evenodd" d="M20,10c0-5.5-4.5-10-10-10C4.5,0,0,4.5,0,10c0,5.5,4.5,10,10,10 C15.5,20,20,15.5,20,10L20,10z M13.1,8.1h0.8v1.5h1.5v0.8h-1.5v1.5h-0.8v-1.5h-1.5V9.6h1.5V8.1z M4.6,13.8c0-0.5,0.3-1.2,1.1-1.7 c0.9-0.5,2.1-0.6,2.7-0.7c-0.2-0.3-0.4-0.5-0.4-1c0-0.2,0.1-0.4,0.1-0.6c-0.2,0-0.3,0-0.5,0c-1.5,0-2.4-1.1-2.4-2.2 c0-0.7,0.3-1.4,0.9-1.9C7,5.1,8,5,8.8,5h2.9l-0.9,0.5H9.9c0.3,0.3,1,0.8,1,1.9c0,1.1-0.6,1.5-1.2,2c-0.2,0.2-0.4,0.4-0.4,0.7 c0,0.3,0.2,0.5,0.4,0.6l0.5,0.4c0.6,0.5,1.2,1,1.2,2c0,1.3-1.3,2.7-3.7,2.7C5.6,15.8,4.6,14.9,4.6,13.8L4.6,13.8z M4.6,13.8"/>
<path fill-rule="evenodd" clip-rule="evenodd" d="M8.9,11.8c-0.1,0-0.2,0-0.3,0c-0.1,0-0.9,0-1.5,0.2c-0.3,0.1-1.2,0.5-1.2,1.5 c0,1,1,1.7,2.5,1.7c1.4,0,2.1-0.7,2.1-1.5C10.5,13,10,12.6,8.9,11.8L8.9,11.8z M8.9,11.8"/>
</symbol>
<symbol id="rss">
<path d="M10,0C4.5,0,0,4.5,0,10c0,5.5,4.5,10,10,10c5.5,0,10-4.5,10-10C20,4.5,15.5,0,10,0L10,0z M6.2,15C5.6,15,5,14.4,5,13.8 c0-0.7,0.6-1.3,1.3-1.3s1.3,0.6,1.3,1.3C7.5,14.4,6.9,15,6.2,15L6.2,15z M9.7,15c0-2.6-2.1-4.7-4.7-4.7V8.4c3.6,0,6.6,2.9,6.6,6.6 H9.7z M13.4,15c0-2.3-0.9-4.4-2.5-6C9.4,7.4,7.3,6.6,5,6.6V4.7c2.8,0,5.3,1.1,7.3,3c1.9,1.9,3,4.5,3,7.3H13.4z M13.4,15"/>
</symbol>
<symbol id="you-tube">
<path fill-rule="evenodd" clip-rule="evenodd" d="M8.2,12.2c1.5-0.8,3-1.5,4.5-2.3c-1.5-0.8-3-1.6-4.5-2.3V12.2z M8.2,12.2"/>
<path fill-rule="evenodd" clip-rule="evenodd" d="M10,0C4.5,0,0,4.5,0,10c0,5.5,4.5,10,10,10c5.5,0,10-4.5,10-10 C20,4.5,15.5,0,10,0L10,0z M16.8,13.3c-0.2,0.8-0.8,1.3-1.5,1.4c-1.8,0.2-3.5,0.2-5.3,0.2c-1.8,0-3.5,0-5.3-0.2 c-0.7-0.1-1.4-0.6-1.5-1.4c-0.2-1.1-0.2-2.2-0.2-3.3c0-1.1,0-2.3,0.2-3.3C3.4,5.9,4,5.4,4.7,5.3C6.5,5.1,8.2,5.1,10,5.1 c1.8,0,3.5,0,5.3,0.2c0.7,0.1,1.4,0.6,1.5,1.4c0.2,1.1,0.2,2.2,0.2,3.3C17.1,11.1,17.1,12.3,16.8,13.3L16.8,13.3z M16.8,13.3"/>
</symbol>
<symbol id="android">
<path d="M3.3,6.8L3.3,6.8c-0.7,0-1.1,0.5-1.1,1.1v4.8c0,0.6,0.5,1.1,1.1,1.1h0c0.6,0,1.1-0.5,1.1-1.1V7.9C4.4,7.3,3.9,6.8,3.3,6.8 L3.3,6.8z M3.3,6.8"/>
<path d="M4.9,14.5c0,0.6,0.5,1,1,1H7v2.6c0,0.6,0.5,1.1,1.1,1.1h0c0.6,0,1.1-0.5,1.1-1.1v-2.6h1.5v2.6c0,0.6,0.5,1.1,1.1,1.1h0 c0.6,0,1.1-0.5,1.1-1.1v-2.6h1.1c0.6,0,1-0.4,1-1V7H4.9V14.5z M4.9,14.5"/>
<path d="M12.5,2.4l0.9-1.3c0.1-0.1,0-0.2-0.1-0.2c-0.1-0.1-0.2,0-0.2,0.1l-0.9,1.4C11.5,2,10.8,1.8,10,1.8C9.2,1.8,8.5,2,7.8,2.2 L6.9,0.9C6.9,0.8,6.8,0.7,6.7,0.8C6.6,0.9,6.6,1,6.6,1.1l0.9,1.3C5.9,3.1,4.9,4.6,4.9,6.2c0,0.1,0,0.2,0,0.3h10.2 c0-0.1,0-0.2,0-0.3C15.1,4.6,14.1,3.1,12.5,2.4L12.5,2.4z M7.6,4.7c-0.3,0-0.5-0.2-0.5-0.5c0-0.3,0.2-0.5,0.5-0.5 c0.3,0,0.5,0.2,0.5,0.5C8.1,4.5,7.9,4.7,7.6,4.7L7.6,4.7z M12.4,4.7c-0.3,0-0.5-0.2-0.5-0.5c0-0.3,0.2-0.5,0.5-0.5 c0.3,0,0.5,0.2,0.5,0.5C12.9,4.5,12.6,4.7,12.4,4.7L12.4,4.7z M12.4,4.7"/>
<path d="M16.8,6.8L16.8,6.8c-0.7,0-1.1,0.5-1.1,1.1v4.8c0,0.6,0.5,1.1,1.1,1.1h0c0.6,0,1.1-0.5,1.1-1.1V7.9 C17.9,7.3,17.4,6.8,16.8,6.8L16.8,6.8z M16.8,6.8"/>
</symbol>
<symbol id="time">
<path d="M10.2,1c-5,0-9,4-9,9c0,5,4,9,9,9c5,0,9-4,9-9C19.2,5,15.1,1,10.2,1z M10.2,17.1c-3.9,0-7.1-3.2-7.1-7.1 c0-3.9,3.2-7.1,7.1-7.1c3.9,0,7.1,3.2,7.1,7.1C17.2,13.9,14.1,17.1,10.2,17.1z"/>
<path d="M14.9,9.7h-4V4.9c0-0.4-0.3-0.7-0.7-0.7c-0.4,0-0.7,0.3-0.7,0.7v5.6c0,0.4,0.3,0.7,0.7,0.7h4.8c0.4,0,0.7-0.3,0.7-0.7 C15.6,10.1,15.3,9.7,14.9,9.7z"/>
</symbol>
<symbol id="trend">
<path d="M14.1,11.1c0-0.3,1.2-4-1.1-5.2c-2.6-1.3-3.3-2.4-3.3-4c0,0.1-1.6,2.7-0.6,4c1.6,2,0.9,3.6,0,3.5C7.5,9.1,7.7,7,8,6.5 C7.2,6.4,6.2,6.9,5.8,7.6c-1.4,2.2,1.6,4.2,0.6,5.8c-0.8,1.2-2.2-1.1-2.2-1.2c-1.7,9,10.4,9.3,11.1,1.7c0.2-2.3,2.2-3.5,2.2-3.5 C15.3,9.5,14.1,11.1,14.1,11.1z M10.2,17.4c-2.9,0.1-2.6-2.2-2.2-2.9c0.5-0.9,1.7-1.1,1.1-2.3c0,0,1.4,0.2,2.2,1.2 C12.6,14.8,12.5,17.3,10.2,17.4z M11.9,3.6c-0.3-0.4-0.6-0.8-0.6-1.2c0-0.6,0.5-1.2,1.1-1.7c0.1,0.5-0.3,1.2,0,1.7 C12.6,2.8,13,3.2,13,3.6c0,0.4-0.2,0.8-0.6,1.2C12.4,4.6,12.2,4,11.9,3.6z"/>
</symbol>
<symbol id="magazine">
<path d="M16.8,5.2c-0.2,0-0.4,0-0.6,0V4.6H16c-4.2,0-5.6,1-6,1.5C9.5,5.5,8.2,4.6,4,4.6H3.8v0.6c-0.2,0-0.4,0-0.6,0H2.7v9.4h0.5 c5.1,0,6.2,1.2,6.3,1.4h1c0.2-0.2,1.2-1.4,6.3-1.4h0.5V5.2H16.8z M9.7,14.2C9,13.6,7.5,13,4.3,13V5.1c4.4,0.1,5.3,1.3,5.4,1.5V14.2 z M15.7,13c-3.2,0-4.7,0.6-5.4,1.2V6.5c0.1-0.2,1-1.4,5.4-1.5V13z"/>
</symbol>
<symbol id="star">
<path d="M17.8,7.2l-4.8-0.4c-0.3,0-0.6-0.2-0.7-0.5l-1.7-4.1c-0.3-0.7-1.3-0.7-1.5,0L7.3,6.3 C7.2,6.6,6.9,6.8,6.6,6.8L1.7,7.2C1,7.3,0.7,8.2,1.3,8.7l3.6,3.1c0.2,0.2,0.3,0.5,0.3,0.8L4.1,17c-0.2,0.7,0.6,1.3,1.2,0.9l4-2.3 c0.3-0.1,0.6-0.1,0.8,0l4,2.3c0.6,0.4,1.4-0.2,1.2-0.9l-1.1-4.4c-0.1-0.3,0-0.6,0.3-0.8l3.6-3.1C18.8,8.2,18.5,7.3,17.8,7.2z"/>
</symbol>
<symbol id="movies">
<path d="M3.4,18.5h13.4c0.6,0,1-0.5,1-1.1V2.8c0-0.6-0.5-1.1-1-1.1H3.4c-0.6,0-1,0.5-1,1.1v14.6 C2.4,18,2.8,18.5,3.4,18.5z M15.3,3.1c0-0.2,0.1-0.3,0.3-0.3h1c0.2,0,0.3,0.1,0.3,0.3v1c0,0.2-0.1,0.3-0.3,0.3h-1 c-0.2,0-0.3-0.1-0.3-0.3V3.1z M15.3,5.7c0-0.2,0.1-0.3,0.3-0.3h1c0.2,0,0.3,0.1,0.3,0.3v1c0,0.2-0.1,0.3-0.3,0.3h-1 c-0.2,0-0.3-0.1-0.3-0.3V5.7z M15.3,8.3c0-0.2,0.1-0.3,0.3-0.3h1c0.2,0,0.3,0.1,0.3,0.3v1c0,0.2-0.1,0.3-0.3,0.3h-1 c-0.2,0-0.3-0.1-0.3-0.3V8.3z M15.3,10.9c0-0.2,0.1-0.3,0.3-0.3h1c0.2,0,0.3,0.1,0.3,0.3v1c0,0.2-0.1,0.3-0.3,0.3h-1 c-0.2,0-0.3-0.1-0.3-0.3V10.9z M15.3,13.5c0-0.2,0.1-0.3,0.3-0.3h1c0.2,0,0.3,0.1,0.3,0.3v1c0,0.2-0.1,0.3-0.3,0.3h-1 c-0.2,0-0.3-0.1-0.3-0.3V13.5z M15.3,16.1c0-0.2,0.1-0.3,0.3-0.3h1c0.2,0,0.3,0.1,0.3,0.3v1c0,0.2-0.1,0.3-0.3,0.3h-1 c-0.2,0-0.3-0.1-0.3-0.3V16.1z M6,3.8c0-0.2,0.1-0.3,0.3-0.3H14c0.2,0,0.3,0.1,0.3,0.3v5.1c0,0.2-0.1,0.3-0.3,0.3H6.3 C6.1,9.3,6,9.1,6,8.9V3.8z M6,11.7c0-0.2,0.1-0.3,0.3-0.3H14c0.2,0,0.3,0.1,0.3,0.3v4.7c0,0.2-0.1,0.3-0.3,0.3H6.3 c-0.2,0-0.3-0.1-0.3-0.3V11.7z M3.3,3.1c0-0.2,0.1-0.3,0.3-0.3h1c0.2,0,0.3,0.1,0.3,0.3v1c0,0.2-0.1,0.3-0.3,0.3h-1 c-0.2,0-0.3-0.1-0.3-0.3V3.1z M3.3,5.7c0-0.2,0.1-0.3,0.3-0.3h1c0.2,0,0.3,0.1,0.3,0.3v1C4.9,6.9,4.8,7,4.6,7h-1 C3.4,7,3.3,6.9,3.3,6.7V5.7z M3.3,8.3C3.3,8.1,3.4,8,3.6,8h1c0.2,0,0.3,0.1,0.3,0.3v1c0,0.2-0.1,0.3-0.3,0.3h-1 c-0.2,0-0.3-0.1-0.3-0.3V8.3z M3.3,10.9c0-0.2,0.1-0.3,0.3-0.3h1c0.2,0,0.3,0.1,0.3,0.3v1c0,0.2-0.1,0.3-0.3,0.3h-1 c-0.2,0-0.3-0.1-0.3-0.3V10.9z M3.3,13.5c0-0.2,0.1-0.3,0.3-0.3h1c0.2,0,0.3,0.1,0.3,0.3v1c0,0.2-0.1,0.3-0.3,0.3h-1 c-0.2,0-0.3-0.1-0.3-0.3V13.5z M3.3,16.1c0-0.2,0.1-0.3,0.3-0.3h1c0.2,0,0.3,0.1,0.3,0.3v1c0,0.2-0.1,0.3-0.3,0.3h-1 c-0.2,0-0.3-0.1-0.3-0.3V16.1z"/>
</symbol>
<symbol id="tv">
<path d="M16.4,10.1c-0.8,0-1.4-0.6-1.4-1.4c0-0.8,0.6-1.4,1.4-1.4c0.8,0,1.4,0.6,1.4,1.4 C17.8,9.4,17.2,10.1,16.4,10.1z M16.4,13.7c-0.8,0-1.4-0.6-1.4-1.4c0-0.8,0.6-1.5,1.4-1.5c0.8,0,1.4,0.6,1.4,1.5 C17.8,13,17.2,13.7,16.4,13.7z M14.3,15.9c0,0.8-0.7,1.6-1.5,1.6H4.3c-0.8,0-1.4-0.8-1.4-1.6V8.6C2.9,7.8,3.5,7,4.3,7h8.5 c0.8,0,1.5,0.8,1.5,1.6V15.9z M17.1,5.8h-5.3c-0.4,0-0.6-0.3-0.3-0.7l1.4-1.7c0.3-0.3,0.5-0.6,0.6-0.6c0,0,0,0,0.1,0 c0.4,0,0.7-0.3,0.7-0.7c0-0.4-0.3-0.7-0.7-0.7c-0.4,0-0.7,0.3-0.7,0.7c0,0,0,0.1,0,0.1c0,0.1-0.2,0.4-0.5,0.7l-1.8,2.2 c-0.3,0.3-0.6,0.6-0.6,0.6c-0.1,0-0.4-0.3-0.6-0.6L7.6,3C7.3,2.6,7.1,2.3,7.1,2.2c0,0,0-0.1,0-0.1c0-0.4-0.3-0.7-0.7-0.7 C6,1.4,5.7,1.7,5.7,2.1c0,0.4,0.3,0.7,0.7,0.7c0,0,0,0,0.1,0c0,0,0.3,0.3,0.6,0.6l1.4,1.8c0.3,0.3,0.2,0.7-0.3,0.7H2.9 c-0.8,0-1.5,0.5-1.5,1.3v10.1c0,0.8,0.7,1.3,1.5,1.3h14.2c0.8,0,1.5-0.5,1.5-1.3V7.2C18.6,6.4,17.9,5.8,17.1,5.8"/>
</symbol>
<symbol id="views">
<path d="M10.1,4.7c-3.9,0-7.2,2.3-8.7,5.6c0,0.1,0,0.2,0,0.3c1.5,3.3,4.8,5.6,8.7,5.6c3.9,0,7.2-2.3,8.7-5.6 c0-0.1,0-0.2,0-0.3C17.2,7,13.9,4.7,10.1,4.7z M10.1,14.4c-2.2,0-3.9-1.8-3.9-3.9c0-2.2,1.8-3.9,3.9-3.9c2.2,0,3.9,1.8,3.9,3.9 C14,12.6,12.2,14.4,10.1,14.4z"/>
<path d="M10.1,7.9c1.4,0,2.5,1.1,2.5,2.5c0,1.4-1.1,2.5-2.5,2.5c-1.4,0-2.5-1.1-2.5-2.5C7.5,9.1,8.7,7.9,10.1,7.9z"/>
</symbol>
<symbol id="gallery">
<path d="M4.9,12.8V6h-1C3.1,6,2.5,6.7,2.5,7.4v9.2c0,0.8,0.6,1.4,1.4,1.4H13c0.8,0,1.4-0.6,1.4-1.4v-1H7.7 C6.2,15.6,4.9,14.4,4.9,12.8z"/>
<path d="M16.9,2.3H7.7c-0.8,0-1.4,0.6-1.4,1.4v9.2c0,0.8,0.6,1.4,1.4,1.4h9.2c0.8,0,1.4-0.6,1.4-1.4V3.6 C18.2,2.9,17.6,2.3,16.9,2.3z M16.7,12.1c-0.1,0.1-0.2,0.2-0.4,0.2H8.4c-0.1,0-0.3-0.1-0.4-0.2C8,12,8,11.9,8,11.7L9.1,8 c0.1-0.2,0.3-0.4,0.5-0.5c0.3,0,0.5,0.1,0.7,0.3l1.6,2.2c0.2,0.3,0.6,0.4,0.9,0.2l1.4-1c0.1-0.1,0.3-0.1,0.5-0.1 c0.2,0,0.3,0.1,0.4,0.3l1.4,2.2C16.7,11.7,16.7,11.9,16.7,12.1z"/>
</symbol>
<symbol id="videos">
<path d="M9.9,3.6c-3.7,0-6.7,3-6.7,6.7c0,3.7,3,6.7,6.7,6.7c3.7,0,6.7-3,6.7-6.7C16.6,6.6,13.6,3.6,9.9,3.6z M13.1,10.8l-4,2.7c-0.1,0.1-0.2,0.1-0.4,0.1c-0.1,0-0.2,0-0.3-0.1c-0.2-0.1-0.3-0.3-0.3-0.6V7.5c0-0.2,0.1-0.5,0.3-0.6 c0.2-0.1,0.5-0.1,0.7,0l4,2.7c0.2,0.1,0.3,0.3,0.3,0.5C13.4,10.5,13.3,10.7,13.1,10.8z"/>
</symbol>
<symbol id="close">
<path d="M336.559,68.611L231.016,174.165l105.543,105.549c15.699,15.705,15.699,41.145,0,56.85 c-7.844,7.844-18.128,11.769-28.407,11.769c-10.296,0-20.581-3.919-28.419-11.769L174.167,231.003L68.609,336.563 c-7.843,7.844-18.128,11.769-28.416,11.769c-10.285,0-20.563-3.919-28.413-11.769c-15.699-15.698-15.699-41.139,0-56.85 l105.54-105.549L11.774,68.611c-15.699-15.699-15.699-41.145,0-56.844c15.696-15.687,41.127-15.687,56.829,0l105.563,105.554 L279.721,11.767c15.705-15.687,41.139-15.687,56.832,0C352.258,27.466,352.258,52.912,336.559,68.611z"/>
</symbol>
<symbol id="sarmady">
<path d="M50.5,11.2"/>
<circle cx="17.1" cy="11.2" r="1.7"/>
<circle cx="14.6" cy="13.7" r="1.6"/>
<circle cx="11.9" cy="16" r="1.4"/>
<circle cx="8.5" cy="16.4" r="1.3"/>
<circle cx="5.5" cy="14.7" r="1.2"/>
<circle cx="4.3" cy="11.5" r="1"/>
<circle cx="5.2" cy="8.2" r="0.9"/>
<circle cx="8" cy="6.1" r="0.8"/>
<circle cx="11.5" cy="6.3" r="0.6"/>
<circle cx="14.3" cy="8.4" r="0.5"/>
<circle cx="17.1" cy="11.3" r="1.7"/>
<circle cx="19.5" cy="8.8" r="1.6"/>
<circle cx="22.2" cy="6.5" r="1.4"/>
<circle cx="25.6" cy="6.1" r="1.3"/>
<circle cx="28.6" cy="7.8" r="1.2"/>
<circle cx="29.8" cy="11" r="1"/>
<circle cx="28.9" cy="14.3" r="0.9"/>
<circle cx="26.1" cy="16.3" r="0.8"/>
<circle cx="22.6" cy="16.2" r="0.6"/>
<circle cx="19.9" cy="14.1" r="0.5"/>
<path d="M48.3,6.7V6.4h2.6v7.8h-2.6v-0.3c-0.5,0.3-1.1,0.5-1.7,0.5c-2.2,0-3.7-1.9-3.7-4.1c0-2.1,1.4-4.1,3.7-4.1 C47.1,6.2,47.7,6.4,48.3,6.7z M45.8,9.1c-0.3,0.3-0.4,0.7-0.4,1.2c0,0.9,0.5,1.7,1.5,1.7c1,0,1.5-0.7,1.5-1.7 c0-0.9-0.6-1.6-1.5-1.6C46.4,8.6,46.1,8.8,45.8,9.1z"/>
<path d="M60.4,6.4v0.3c0.5-0.3,1.2-0.5,1.8-0.5c0.8,0,1.6,0.3,2.1,1c0.6-0.6,1.4-1,2.3-1c2.2,0,2.8,1.6,2.8,3.5v4.5h-2.6v-3.9 c0-0.6,0.1-1.6-0.8-1.6c-1.1,0-1.1,1.2-1.1,2v3.5h-2.6v-3.8c0-0.6,0.1-1.8-0.8-1.8c-1.1,0-1.1,1.3-1.1,2v3.5h-2.6V6.4H60.4z"/>
<path d="M75.6,6.7V6.4h2.6v7.8h-2.6v-0.3c-0.5,0.3-1.1,0.5-1.7,0.5c-2.2,0-3.7-1.9-3.7-4.1c0-2.1,1.4-4.1,3.7-4.1 C74.4,6.2,75.1,6.4,75.6,6.7z M73.1,9.1c-0.3,0.3-0.4,0.7-0.4,1.2c0,0.9,0.5,1.7,1.5,1.7c1,0,1.5-0.7,1.5-1.7 c0-0.9-0.6-1.6-1.5-1.6C73.7,8.6,73.4,8.8,73.1,9.1z"/>
<path d="M87.1,3.7v10.5h-2.6v-0.3c-0.5,0.3-1.1,0.5-1.7,0.5c-2.2,0-3.7-1.9-3.7-4.1c0-2.1,1.4-4.1,3.7-4.1c0.6,0,1.2,0.2,1.8,0.5 v-3H87.1z M82,9.1c-0.3,0.3-0.4,0.7-0.4,1.2c0,0.9,0.5,1.7,1.5,1.7c1,0,1.5-0.7,1.5-1.7c0-0.9-0.6-1.6-1.5-1.6 C82.6,8.6,82.3,8.8,82,9.1z"/>
<path d="M90.8,6.4l1.5,3.7l1.7-3.7h2.7l-4.7,10.3h-2.7l1.6-3.5l-2.8-6.9H90.8z"/>
<path d="M40.1,7.3c-0.4-0.4-1-1.1-1.7-1.1c-0.2,0-0.6,0-0.6,0.3c0,0.2,0.6,0.5,0.7,0.5l0.9,0.4c1.5,0.7,2.7,1.6,2.7,3.4 c0,2.2-1.8,3.4-3.8,3.4c-1.7,0-2.8-0.7-3.8-2l1.9-2.1c0.5,0.6,1.2,1.3,2,1.3c0.2,0,0.8-0.1,0.8-0.4c0-0.2-0.2-0.4-0.9-0.8 l-0.8-0.4c-1.6-0.8-2.5-1.9-2.5-3.3c0-1.9,1.7-3.1,3.5-3.1c1.6,0,2.7,0.7,3.6,2L40.1,7.3z"/>
<path d="M52.1,14.2V6.4h2.5v0.9c0.3-0.3,0.6-0.6,1-0.7c0.3-0.2,0.8-0.2,1.2-0.2l0,3c-0.2-0.1-0.7-0.1-0.9,0 c-0.2,0-0.3,0.1-0.4,0.1c-0.4,0.2-0.6,0.4-0.7,0.7c-0.1,0.3-0.1,0.9-0.1,0.9v3.1H52.1z"/>
<path d="M37.4,16H38v2.3h-0.6V18c-0.1,0.1-0.2,0.2-0.3,0.2c-0.1,0-0.2,0.1-0.4,0.1c-0.3,0-0.5-0.1-0.8-0.3 c-0.2-0.2-0.3-0.5-0.3-0.8c0-0.3,0.1-0.6,0.3-0.9c0.2-0.2,0.5-0.3,0.8-0.3c0.1,0,0.3,0,0.4,0.1c0.1,0.1,0.2,0.1,0.3,0.2V16z M36.8,16.5c-0.2,0-0.3,0.1-0.4,0.2c-0.1,0.1-0.2,0.3-0.2,0.5c0,0.2,0.1,0.4,0.2,0.5c0.1,0.1,0.3,0.2,0.4,0.2 c0.2,0,0.3-0.1,0.4-0.2c0.1-0.1,0.2-0.3,0.2-0.5c0-0.2-0.1-0.4-0.2-0.5C37.2,16.5,37,16.5,36.8,16.5z"/>
<path d="M62.1,16.5l-0.5,0.3c-0.1-0.1-0.2-0.2-0.3-0.2c-0.1,0-0.2-0.1-0.3-0.1c-0.2,0-0.4,0.1-0.5,0.2c-0.1,0.1-0.2,0.3-0.2,0.5 c0,0.2,0.1,0.3,0.2,0.5c0.1,0.1,0.3,0.2,0.5,0.2c0.3,0,0.5-0.1,0.6-0.3l0.4,0.3c-0.2,0.3-0.6,0.5-1,0.5c-0.4,0-0.7-0.1-0.9-0.4 c-0.2-0.2-0.3-0.5-0.3-0.8c0-0.2,0.1-0.4,0.2-0.6c0.1-0.2,0.3-0.3,0.5-0.4c0.2-0.1,0.4-0.2,0.7-0.2c0.2,0,0.4,0,0.6,0.1 C61.9,16.2,62,16.3,62.1,16.5z"/>
<path d="M63.9,16c0.2,0,0.4,0.1,0.6,0.2c0.2,0.1,0.3,0.3,0.4,0.4c0.1,0.2,0.2,0.4,0.2,0.6c0,0.2-0.1,0.4-0.2,0.6 c-0.1,0.2-0.3,0.3-0.4,0.4c-0.2,0.1-0.4,0.2-0.6,0.2c-0.3,0-0.6-0.1-0.8-0.3c-0.2-0.2-0.3-0.5-0.3-0.8c0-0.4,0.1-0.6,0.4-0.9 C63.3,16.1,63.6,16,63.9,16z M63.9,16.5c-0.2,0-0.3,0.1-0.4,0.2c-0.1,0.1-0.2,0.3-0.2,0.5c0,0.2,0.1,0.4,0.2,0.5 c0.1,0.1,0.3,0.2,0.4,0.2c0.2,0,0.3-0.1,0.4-0.2c0.1-0.1,0.2-0.3,0.2-0.5c0-0.2-0.1-0.4-0.2-0.5C64.2,16.6,64.1,16.5,63.9,16.5z"/>
<path d="M65.8,16h0.6v0.3c0.1-0.1,0.2-0.2,0.3-0.2c0.1-0.1,0.2-0.1,0.4-0.1c0.1,0,0.3,0,0.4,0.1c0.1,0.1,0.2,0.2,0.3,0.3 c0.1-0.1,0.2-0.2,0.3-0.3c0.1-0.1,0.3-0.1,0.4-0.1c0.2,0,0.3,0,0.4,0.1c0.1,0.1,0.2,0.2,0.3,0.3c0.1,0.1,0.1,0.3,0.1,0.6v1.3 h-0.6v-1.1c0-0.3,0-0.4-0.1-0.5c-0.1-0.1-0.2-0.1-0.3-0.1c-0.1,0-0.2,0-0.3,0.1c-0.1,0.1-0.1,0.1-0.2,0.2c0,0.1-0.1,0.3-0.1,0.5 v1h-0.6v-1.1c0-0.2,0-0.3,0-0.4c0-0.1-0.1-0.2-0.1-0.2c-0.1,0-0.1-0.1-0.2-0.1c-0.1,0-0.2,0-0.3,0.1c-0.1,0.1-0.1,0.1-0.2,0.2 c0,0.1-0.1,0.3-0.1,0.5v1h-0.6V16z"/>
<path d="M70.6,16v0.2c0.1-0.1,0.2-0.2,0.3-0.2C71,16,71.2,16,71.3,16c0.3,0,0.5,0.1,0.8,0.3c0.2,0.2,0.3,0.5,0.3,0.9 c0,0.3-0.1,0.6-0.3,0.8c-0.2,0.2-0.5,0.3-0.8,0.3c-0.1,0-0.3,0-0.4-0.1c-0.1,0-0.2-0.1-0.3-0.2v1.1H70V16H70.6z M71.2,16.5 c-0.2,0-0.3,0.1-0.4,0.2c-0.1,0.1-0.2,0.3-0.2,0.5c0,0.2,0.1,0.4,0.2,0.5c0.1,0.1,0.3,0.2,0.4,0.2c0.2,0,0.3-0.1,0.4-0.2 c0.1-0.1,0.2-0.3,0.2-0.5c0-0.2-0.1-0.4-0.2-0.5C71.5,16.5,71.3,16.5,71.2,16.5z"/>
<path d="M74.7,16h0.6v2.3h-0.6V18c-0.1,0.1-0.2,0.2-0.3,0.2c-0.1,0-0.2,0.1-0.4,0.1c-0.3,0-0.5-0.1-0.8-0.3 c-0.2-0.2-0.3-0.5-0.3-0.8c0-0.3,0.1-0.6,0.3-0.9c0.2-0.2,0.5-0.3,0.8-0.3c0.1,0,0.3,0,0.4,0.1c0.1,0.1,0.2,0.1,0.3,0.2V16z M74.1,16.5c-0.2,0-0.3,0.1-0.4,0.2c-0.1,0.1-0.2,0.3-0.2,0.5c0,0.2,0.1,0.4,0.2,0.5c0.1,0.1,0.3,0.2,0.4,0.2 c0.2,0,0.3-0.1,0.4-0.2c0.1-0.1,0.2-0.3,0.2-0.5c0-0.2-0.1-0.4-0.2-0.5C74.5,16.5,74.3,16.5,74.1,16.5z"/>
<path d="M76.1,16h0.6v0.2c0.1-0.1,0.2-0.2,0.4-0.2c0.1,0,0.2-0.1,0.3-0.1c0.2,0,0.4,0.1,0.6,0.2c0.1,0.1,0.2,0.3,0.2,0.6v1.5 h-0.6v-1c0-0.3,0-0.4,0-0.5c0-0.1-0.1-0.2-0.1-0.2c-0.1,0-0.1-0.1-0.2-0.1c-0.1,0-0.2,0-0.3,0.1c-0.1,0.1-0.1,0.2-0.2,0.3 c0,0.1,0,0.2,0,0.5v0.9h-0.6V16z"/>
<polygon points="78.6,16 79.2,16 79.8,17.4 80.4,16 81,16 79.6,19.1 79,19.1 79.5,18.1 "/>
<path fill-rule="evenodd" clip-rule="evenodd" d="M57.6,16.9c0-0.2-0.2-0.4-0.5-0.4c-0.2,0-0.4,0.1-0.5,0.4H57.6z M57.3,17.8 c0.6,0,0.8-0.1,0.8-0.1v0.4c0,0-0.3,0.2-0.9,0.2c-0.4,0-1.2-0.2-1.2-1.2c0-0.7,0.4-1.2,1.1-1.2c0.8,0,1,0.7,1,1c0,0.2,0,0.4,0,0.4 h-1.5C56.8,17.7,57,17.8,57.3,17.8z M55.8,16.9v1.4h-0.6V17c0-0.3-0.2-0.5-0.5-0.5c-0.2,0-0.4,0.1-0.4,0.1v1.7h-0.6v-2.1 c0,0,0.5-0.2,1-0.2C55.5,16,55.8,16.4,55.8,16.9z M51.6,17.2c0-0.4,0.2-0.7,0.5-0.7c0.3,0,0.5,0.3,0.5,0.7c0,0.4-0.2,0.7-0.5,0.7 C51.9,17.8,51.6,17.5,51.6,17.2z M50.9,16v0.5h-0.6v1.7h-0.6v-2.4c0-0.3,0.1-0.8,0.8-0.8c0.2,0,0.5,0,0.5,0v0.5 c0,0-0.6-0.2-0.6,0.2V16H50.9z M51,17.2c0-0.6,0.5-1.2,1.2-1.2c0.6,0,1.2,0.5,1.2,1.2c0,0.6-0.5,1.2-1.2,1.2 C51.5,18.3,51,17.8,51,17.2z M48.8,18.1c-0.1,0.1-0.3,0.3-0.6,0.3c-0.6,0-1.1-0.3-1.1-1.2c0-0.6,0.5-1.2,1.2-1.2 c0.6,0,1,0.2,1,0.2l0,2.1h-0.6L48.8,18.1z M46.8,18.2c0,0-0.4,0.1-1,0.1c-0.6,0-1.2-0.4-1.2-1.2c0-0.8,0.5-1.2,1.2-1.2 c0.2,0,0.3,0,0.4,0.1v-0.9h0.6V18.2z M48.7,17.6c-0.1,0.1-0.3,0.2-0.4,0.2c-0.3,0-0.5-0.2-0.5-0.7c0-0.4,0.3-0.6,0.6-0.6 c0.2,0,0.3,0,0.3,0V17.6z M39.5,16h0.7l0.5,1.4l0.5-1.4H42l-0.9,2.2h-0.6L39.5,16z M46.2,17.8c-0.1,0-0.2,0-0.4,0 c-0.3,0-0.6-0.3-0.6-0.7c0-0.4,0.2-0.7,0.5-0.7c0.2,0,0.3,0.1,0.4,0.1V17.8z M42.7,17.2c0-0.4,0.2-0.7,0.5-0.7 c0.3,0,0.5,0.3,0.5,0.7c0,0.4-0.2,0.7-0.5,0.7C42.9,17.8,42.7,17.5,42.7,17.2z M42,17.2c0-0.6,0.5-1.2,1.2-1.2 c0.6,0,1.2,0.5,1.2,1.2c0,0.6-0.5,1.2-1.2,1.2C42.5,18.3,42,17.8,42,17.2z"/>
</symbol>
<symbol id="more">
<path d="M51,153c-28.05,0-51,22.95-51,51s22.95,51,51,51s51-22.95,51-51S79.05,153,51,153z M357,153c-28.05,0-51,22.95-51,51 s22.95,51,51,51s51-22.95,51-51S385.05,153,357,153z M204,153c-28.05,0-51,22.95-51,51s22.95,51,51,51s51-22.95,51-51 S232.05,153,204,153z"/>
</symbol>
<symbol id="apple">
<path d="M395.748,272.046c-0.646-64.841,52.88-95.938,55.271-97.483c-30.075-44.01-76.925-50.039-93.62-50.736 c-39.871-4.037-77.798,23.474-98.033,23.474c-20.184,0-51.409-22.877-84.476-22.276c-43.458,0.646-83.529,25.269-105.906,64.19 c-45.152,78.35-11.563,194.42,32.445,257.963c21.504,31.104,47.146,66.038,80.813,64.79c32.421-1.294,44.681-20.979,83.878-20.979 c39.196,0,50.215,20.979,84.524,20.335c34.888-0.648,56.991-31.699,78.347-62.898c24.694-36.084,34.862-71.019,35.462-72.812 C463.678,375.26,396.422,349.495,395.748,272.046z M331.28,81.761C349.149,60.082,361.21,30.005,357.92,0 c-25.739,1.048-56.938,17.145-75.405,38.775c-16.57,19.188-31.075,49.813-27.188,79.218 C284.061,120.235,313.392,103.391,331.28,81.761z"/>
</symbol>
<symbol id="instagram">
<path d="M24.825,29.796c2.739,0,4.972-2.229,4.972-4.97c0-1.082-0.354-2.081-0.94-2.897c-0.903-1.252-2.371-2.073-4.029-2.073 c-1.659,0-3.126,0.82-4.031,2.072c-0.588,0.816-0.939,1.815-0.94,2.897C19.854,27.566,22.085,29.796,24.825,29.796z"/>
<polygon points="35.678,18.746 35.678,14.58 35.678,13.96 35.055,13.962 30.891,13.975 30.907,18.762 "/>
<path d="M24.826,0C11.137,0,0,11.137,0,24.826c0,13.688,11.137,24.826,24.826,24.826c13.688,0,24.826-11.138,24.826-24.826 C49.652,11.137,38.516,0,24.826,0z M38.945,21.929v11.56c0,3.011-2.448,5.458-5.457,5.458H16.164 c-3.01,0-5.457-2.447-5.457-5.458v-11.56v-5.764c0-3.01,2.447-5.457,5.457-5.457h17.323c3.01,0,5.458,2.447,5.458,5.457V21.929z"/>
<path d="M32.549,24.826c0,4.257-3.464,7.723-7.723,7.723c-4.259,0-7.722-3.466-7.722-7.723c0-1.024,0.204-2.003,0.568-2.897 h-4.215v11.56c0,1.494,1.213,2.704,2.706,2.704h17.323c1.491,0,2.706-1.21,2.706-2.704v-11.56h-4.217 C32.342,22.823,32.549,23.802,32.549,24.826z"/>
</symbol>
<symbol id="missing">
<path d="M451.612,34.739H25.453C11.399,34.739,0,46.138,0,60.192v269.219c0,14.054,11.399,25.453,25.453,25.453h168.697 l-22.719,54.664h-10.421c-9.053,0-16.398,7.345-16.398,16.398s7.345,16.4,16.398,16.4h155.046c9.053,0,16.4-7.347,16.4-16.4 s-7.347-16.398-16.4-16.398h-10.421l-22.719-54.664h168.696c14.054,0,25.453-11.399,25.453-25.453V60.192 C477.065,46.138,465.666,34.739,451.612,34.739z M369.291,338.394c-6.585,0-11.927-5.342-11.927-11.927 c0-6.585,5.341-11.927,11.927-11.927c6.583,0,11.927,5.341,11.927,11.927C381.217,333.052,375.874,338.394,369.291,338.394z M408.052,338.394c-6.585,0-11.927-5.342-11.927-11.927c0-6.585,5.341-11.927,11.927-11.927c6.583,0,11.927,5.341,11.927,11.927 C419.979,333.052,414.636,338.394,408.052,338.394z M431.642,290.393c0,6.149-4.985,11.135-11.135,11.135H56.557 c-6.149,0-11.135-4.985-11.135-11.135V96.656c0-6.151,4.985-11.135,11.135-11.135h363.949c6.149,0,11.135,4.984,11.135,11.135 V290.393z"/>
<path d="M179.023,195.779h-3.338v-55.238c0-2.942-2.377-5.319-5.311-5.319h-21.307c-1.832,0-3.54,0.948-4.504,2.509l-35.78,57.59 c-1.164,1.856-1.77,3.999-1.77,6.189v7.065c0,2.944,2.376,5.319,5.311,5.319h40.469v13.192c0,6.321,5.125,11.445,11.445,11.445 c6.321,0,11.446-5.124,11.446-11.445v-13.192h3.338c5.001,0,9.053-4.053,9.053-9.061 C188.076,199.832,184.024,195.779,179.023,195.779z M152.794,172.889v22.89h-23.201v-0.318l13.822-22.572 c3.494-6.515,6.195-12.556,9.535-19.226h0.636C153.104,160.333,152.794,166.692,152.794,172.889z"/>
<path d="M236.125,133.476c-26.711,0-39.429,23.681-39.429,53.56c0.172,29.242,11.927,53.243,38.623,53.243 c26.383,0,39.258-21.935,39.258-53.88C274.576,158.113,263.767,133.476,236.125,133.476z M235.954,222.001 c-9.365,0-15.094-11.283-14.94-34.966c-0.154-24,5.887-35.282,14.784-35.282c9.691,0,14.628,12.083,14.628,34.964 C250.427,210.245,245.333,222.001,235.954,222.001z"/>
<path d="M355.531,195.779h-3.338v-55.238c0-2.942-2.377-5.319-5.311-5.319h-21.307c-1.832,0-3.54,0.948-4.503,2.509l-35.78,57.59 c-1.164,1.856-1.77,3.999-1.77,6.189v7.065c0,2.944,2.376,5.319,5.311,5.319h40.469v13.192c0,6.321,5.125,11.445,11.445,11.445 c6.321,0,11.446-5.124,11.446-11.445v-13.192h3.338c5.001,0,9.055-4.053,9.055-9.061 C364.585,199.832,360.532,195.779,355.531,195.779z M329.302,172.889v22.89h-23.201v-0.318l13.822-22.572 c3.494-6.515,6.195-12.556,9.535-19.226h0.636C329.612,160.333,329.302,166.692,329.302,172.889z"/>
</symbol>
<symbol id="sms" viewBox="0 0 20 20">
<path style="fill:#FFFFFF;" d="M10,0.8c-5.2,0-9.5,3.9-9.5,8.6c0,2.3,1,4.5,2.8,6.1c0.2,0.2,0.2,0.4,0.2,0.6 c-0.4,1.2-0.9,2.1-1.3,2.7c0.1,0,0.3,0,0.4,0c1-0.1,2.2-0.4,3.2-1.4c0.2-0.1,0.4-0.2,0.6-0.1C7.5,17.8,8.7,18,10,18 c5.2,0,9.5-3.9,9.5-8.6S15.2,0.8,10,0.8z M4.3,12.5c-0.6,0-1.3-0.2-1.6-0.3l0.3-1c0.3,0.2,0.9,0.3,1.4,0.3c0.6,0,0.9-0.2,0.9-0.6 c0-0.3-0.3-0.5-0.9-0.8C3.4,9.7,2.8,9.2,2.8,8.4c0-1,0.8-1.7,2.1-1.7C5.5,6.7,6,6.9,6.3,7L6,8C5.8,7.9,5.4,7.8,4.8,7.8S4,8,4,8.3 c0,0.4,0.3,0.5,1,0.8c1,0.4,1.4,0.9,1.4,1.7C6.5,11.7,5.8,12.5,4.3,12.5z M12.2,12.4l-0.1-2.1c0-0.7,0-1.5,0-2.3h0 c-0.2,0.7-0.4,1.5-0.6,2.2l-0.7,2.2h-1l-0.6-2.2C8.9,9.5,8.8,8.7,8.6,8h0c0,0.8-0.1,1.6-0.1,2.3l-0.1,2.1H7.2l0.4-5.6h1.7l0.5,1.9 c0.2,0.6,0.3,1.3,0.5,2h0c0.2-0.6,0.3-1.4,0.5-2l0.6-1.9h1.6l0.3,5.6L12.2,12.4L12.2,12.4z M16.5,9.1c1,0.4,1.4,0.9,1.4,1.7 c0,0.9-0.7,1.7-2.3,1.7c-0.6,0-1.3-0.2-1.6-0.3l0.3-1c0.3,0.2,0.9,0.3,1.4,0.3c0.6,0,0.9-0.2,0.9-0.6c0-0.3-0.3-0.5-0.9-0.8 c-0.9-0.3-1.5-0.8-1.5-1.6c0-1,0.8-1.7,2.1-1.7c0.6,0,1.1,0.1,1.4,0.3l-0.3,1c-0.2-0.1-0.6-0.3-1.2-0.3S15.5,8,15.5,8.3 C15.5,8.7,15.8,8.8,16.5,9.1z"/>
</symbol>
</defs>
</svg>
